<svg width="83" height="82" viewBox="0 0 83 82" fill="none" xmlns="http://www.w3.org/2000/svg">
<path d="M56.7817 15.3409C56.7817 6.86824 49.9392 0 41.4992 0C33.0591 0 26.2166 6.86824 26.2166 15.3409C26.2166 23.8135 33.0591 30.6817 41.4992 30.6817C49.9392 30.6817 56.7817 23.8135 56.7817 15.3409ZM37.9316 38.5279C28.4866 32.724 13.1886 31.1292 5.49027 30.6898C2.90324 30.5427 0.746567 32.521 0.746567 35.0188V70.6223C0.746567 72.9123 2.59188 74.8219 4.96373 74.945C11.9138 75.3109 25.9754 76.6516 35.6934 81.5655C37.185 82.3197 38.9537 81.2923 38.9537 79.6687V40.3593C38.9521 39.613 38.5845 38.9291 37.9316 38.5279ZM77.5081 30.6898C69.8114 31.1276 54.5117 32.724 45.0684 38.5279C44.4155 38.9291 44.0479 39.6402 44.0479 40.3864V79.6638C44.0479 81.2923 45.8215 82.3214 47.318 81.5655C57.0344 76.6564 71.0878 75.3157 78.0362 74.9497C80.4081 74.8251 82.2534 72.9155 82.2534 70.6255V35.0188C82.2518 32.521 80.0951 30.5427 77.5081 30.6898Z" fill="#FFB800"/>
</svg>
