<svg width="83" height="83" viewBox="0 0 83 83" fill="none" xmlns="http://www.w3.org/2000/svg">
<path d="M63.8533 56.5336C64.2901 56.1317 82.2534 41.6809 82.2534 41.6809L79.1928 40.4753C77.4437 39.6877 77.8985 38.6268 78.3183 37.6783C78.738 36.4567 81.8337 26.8603 81.8337 26.8603C81.8337 26.8603 73.4906 28.4677 71.7415 28.8696C70.43 29.2554 69.9924 28.4677 69.5555 27.664C69.1178 26.8603 66.9318 22.456 66.9318 22.456C66.9318 22.456 57.7313 32.0845 57.2944 32.4702C55.5453 33.6759 53.7782 32.4702 54.2159 30.8628C54.2159 29.2554 59.0435 10.0304 59.0435 10.0304C59.0435 10.0304 53.7782 12.8273 52.0291 13.6311C50.7176 14.4348 49.8259 14.4348 48.9514 12.8273C48.0589 11.6218 41.4829 0 41.4829 0C41.4829 0 34.9232 11.6218 34.0487 12.8273C33.1741 14.4348 32.2995 14.4348 30.971 13.6311C29.2218 12.8273 23.9565 10.0304 23.9565 10.0304C23.9565 10.0304 28.7841 29.2554 28.7841 30.8628C29.2218 32.4702 27.4727 33.6759 25.7056 32.4702C25.2687 32.0684 16.0682 22.456 16.0682 22.456C16.0682 22.456 13.8822 26.8442 13.4445 27.648C13.0077 28.4517 12.57 29.2393 11.2585 28.8535C9.49227 28.4517 1.16634 26.8442 1.16634 26.8442C1.16634 26.8442 4.24486 36.4406 4.68174 37.6623C5.1015 38.6268 5.5563 39.6716 3.80717 40.4593L0.746582 41.6809C0.746582 41.6809 18.6919 56.1317 19.1468 56.5336C20.0393 57.3374 20.8959 57.7393 20.0393 60.1503C19.1468 62.5615 18.2722 65.7925 18.2722 65.7925C18.2722 65.7925 34.9232 62.5615 36.6903 62.1596C38.212 62.015 39.8911 62.5615 39.8911 64.169C39.8911 65.7764 38.8763 82.3009 38.8763 82.3009H44.1237C44.1237 82.3009 43.109 65.7925 43.109 64.169C43.109 62.5455 44.7709 62.015 46.3277 62.1596C48.0768 62.5615 64.7278 65.7925 64.7278 65.7925C64.7278 65.7925 63.8533 62.5615 62.9787 60.1503C62.1041 57.7393 62.9787 57.3374 63.8533 56.5336Z" fill="#FFB800"/>
</svg>
