<svg width="82" height="82" viewBox="0 0 82 82" fill="none" xmlns="http://www.w3.org/2000/svg">
<path d="M0.109589 35.6908V79.0296C0.109589 80.4381 1.02165 81.5789 2.14726 81.5789H12.3356V30.5921H4.18493C1.93453 30.5921 0.109589 32.8753 0.109589 35.6908ZM45.9572 28.0428H42.9007V21.6694C42.9007 20.9651 42.4451 20.3947 41.8818 20.3947H39.8442C39.281 20.3947 38.8253 20.9651 38.8253 21.6694V31.8668C38.8253 32.571 39.281 33.1414 39.8442 33.1414H45.9572C46.5204 33.1414 46.976 32.571 46.976 31.8668V29.3174C46.976 28.6132 46.5204 28.0428 45.9572 28.0428ZM63.4999 17.8518L43.1232 0.855633C42.454 0.2977 41.6675 0 40.863 0C40.0585 0 39.272 0.2977 38.6028 0.855633L18.2261 17.8518C17.6678 18.3173 17.2097 18.948 16.8935 19.6879C16.5764 20.4278 16.411 21.254 16.411 22.0932V81.5789H32.7123V58.6349C32.7123 57.2263 33.6244 56.0855 34.75 56.0855H46.976C48.1016 56.0855 49.0137 57.2263 49.0137 58.6349V81.5789H65.3151V22.0948C65.3151 20.39 64.6337 18.7966 63.4999 17.8518ZM40.863 40.7895C35.2366 40.7895 30.6747 35.0821 30.6747 28.0428C30.6747 21.0034 35.2366 15.2961 40.863 15.2961C46.4894 15.2961 51.0514 21.0034 51.0514 28.0428C51.0514 35.0821 46.4894 40.7895 40.863 40.7895ZM77.5411 30.5921H69.3904V81.5789H79.5788C80.7044 81.5789 81.6164 80.4381 81.6164 79.0296V35.6908C81.6164 32.8753 79.7915 30.5921 77.5411 30.5921Z" fill="#FFB800"/>
</svg>
