<svg width="1440" height="1350" viewBox="0 0 1440 1350" fill="none" xmlns="http://www.w3.org/2000/svg">
<rect y="157" width="1440" height="1024" fill="#FFB800"/>
<path fill-rule="evenodd" clip-rule="evenodd" d="M0 1199.92L60 1229.85C120 1259.78 240 1319.65 360 1319.65C480 1319.65 600 1259.78 720 1265.77C840 1271.76 960 1343.6 1080 1349.58C1200 1355.57 1320 1295.7 1380 1265.77L1440 1235.84V1164H1380C1320 1164 1200 1164 1080 1164C960 1164 840 1164 720 1164C600 1164 480 1164 360 1164C240 1164 120 1164 60 1164H0V1199.92Z" fill="#FFB800"/>
<path fill-rule="evenodd" clip-rule="evenodd" d="M1439 150.081L1379 120.148C1319 90.2156 1199 30.3503 1079 30.3503C959 30.3503 839 90.2156 719 84.229C599 78.2425 479 6.40417 359 0.417646C239 -5.56888 119 54.2964 59 84.229L-1 114.162V186H59C119 186 239 186 359 186C479 186 599 186 719 186C839 186 959 186 1079 186C1199 186 1319 186 1379 186H1439V150.081Z" fill="#FFB800"/>
</svg>
